<svg xmlns="http://www.w3.org/2000/svg" width="11" height="14">
    <path fill-rule="evenodd" fill="#FFF" d="m9 9.001-3 4c-.158.188-.441-.014-.749-.352-.36.212-.742.352-1.146.352C2.216 13.001 0 10.37 0 8.126V3.251c0-.449.306-.813.684-.813.378 0 .684.364.684.813v3.186c.206-.011.447.003.684.015V1.626c0-.449.307-.812.684-.812.378 0 .684.363.684.812v4.875c.225 0 .455-.009.685-.021V.814c0-.449.306-.813.684-.813.378 0 .684.364.684.813v5.611c.242.001.47.018.684.051V2.438c0-.448.306-.812.684-.812.378 0 .684.364.684.812V7.34C8.209 6.701 9.661 5.598 10 6.001c.401.476-.599 2.524-1 3z"/>
</svg>
